<svg width="72" height="77" viewBox="0 0 72 77" fill="none" xmlns="http://www.w3.org/2000/svg">
<path d="M21.6 28.3941L23.52 29.9282C23.7874 29.5483 23.9503 29.0967 23.9903 28.6238C24.0303 28.1508 23.946 27.6754 23.7466 27.2507C23.5473 26.826 23.2409 26.4688 22.8618 26.2192C22.4826 25.9696 22.0457 25.8373 21.6 25.8373V28.3941ZM14.4 38.6213L12.48 37.0872C12.2126 37.4671 12.0497 37.9188 12.0097 38.3917C11.9697 38.8646 12.054 39.34 12.2534 39.7647C12.4527 40.1894 12.7591 40.5466 13.1382 40.7962C13.5174 41.0459 13.9543 41.1781 14.4 41.1781V38.6213ZM9.6 30.9509H21.6V25.8373H9.6V30.9509ZM19.68 26.8601L12.48 37.0872L16.32 40.1554L23.52 29.9282L19.68 26.8601ZM14.4 41.1781H16.8V36.0645H14.4V41.1781ZM16.8 46.2917H9.6V51.4053H16.8V46.2917ZM19.2 43.7349C19.2 44.413 18.9471 45.0633 18.4971 45.5428C18.047 46.0223 17.4365 46.2917 16.8 46.2917V51.4053C18.7096 51.4053 20.5409 50.5971 21.8912 49.1587C23.2414 47.7202 24 45.7692 24 43.7349H19.2ZM16.8 41.1781C17.4365 41.1781 18.047 41.4475 18.4971 41.927C18.9471 42.4064 19.2 43.0568 19.2 43.7349H24C24 41.7006 23.2414 39.7496 21.8912 38.3111C20.5409 36.8726 18.7096 36.0645 16.8 36.0645V41.1781ZM38.4 25.8373H36V30.9509H38.4V25.8373ZM28.8 33.5077V38.6213H33.6V33.5077H28.8ZM28.8 38.6213V43.7349H33.6V38.6213H28.8ZM36 36.0645H31.2V41.1781H36V36.0645ZM43.2 43.7349C43.2 41.7006 42.4414 39.7496 41.0912 38.3111C39.7409 36.8726 37.9096 36.0645 36 36.0645V41.1781C36.6365 41.1781 37.247 41.4475 37.6971 41.927C38.1471 42.4064 38.4 43.0568 38.4 43.7349H43.2ZM36 51.4053C37.9096 51.4053 39.7409 50.5971 41.0912 49.1587C42.4414 47.7202 43.2 45.7692 43.2 43.7349H38.4C38.4 44.413 38.1471 45.0633 37.6971 45.5428C37.247 46.0223 36.6365 46.2917 36 46.2917V51.4053ZM36 46.2917C35.3635 46.2917 34.753 46.0223 34.3029 45.5428C33.8529 45.0633 33.6 44.413 33.6 43.7349H28.8C28.8 45.7692 29.5586 47.7202 30.9088 49.1587C32.2591 50.5971 34.0904 51.4053 36 51.4053V46.2917ZM36 25.8373C34.0904 25.8373 32.2591 26.6455 30.9088 28.0839C29.5586 29.5224 28.8 31.4734 28.8 33.5077H33.6C33.6 32.8296 33.8529 32.1793 34.3029 31.6998C34.753 31.2203 35.3635 30.9509 36 30.9509V25.8373ZM57.6 33.5077V43.7349H62.4V33.5077H57.6ZM52.8 43.7349V33.5077H48V43.7349H52.8ZM55.2 46.2917C54.5635 46.2917 53.953 46.0223 53.5029 45.5428C53.0529 45.0633 52.8 44.413 52.8 43.7349H48C48 45.7692 48.7586 47.7202 50.1088 49.1587C51.4591 50.5971 53.2904 51.4053 55.2 51.4053V46.2917ZM57.6 43.7349C57.6 44.413 57.3471 45.0633 56.8971 45.5428C56.447 46.0223 55.8365 46.2917 55.2 46.2917V51.4053C57.1096 51.4053 58.9409 50.5971 60.2912 49.1587C61.6414 47.7202 62.4 45.7692 62.4 43.7349H57.6ZM55.2 30.9509C55.8365 30.9509 56.447 31.2203 56.8971 31.6998C57.3471 32.1793 57.6 32.8296 57.6 33.5077H62.4C62.4 31.4734 61.6414 29.5224 60.2912 28.0839C58.9409 26.6455 57.1096 25.8373 55.2 25.8373V30.9509ZM55.2 25.8373C53.2904 25.8373 51.4591 26.6455 50.1088 28.0839C48.7586 29.5224 48 31.4734 48 33.5077H52.8C52.8 32.8296 53.0529 32.1793 53.5029 31.6998C53.953 31.2203 54.5635 30.9509 55.2 30.9509V25.8373ZM36 71.8596C27.7252 71.8596 19.7894 68.3577 13.9383 62.1243C8.08713 55.8909 4.8 47.4366 4.8 38.6213H0C0 48.7929 3.79285 58.5478 10.5442 65.7402C17.2955 72.9325 26.4522 76.9732 36 76.9732V71.8596ZM67.2 38.6213C67.2 42.9862 66.393 47.3084 64.825 51.341C63.2571 55.3737 60.9589 59.0379 58.0617 62.1243C55.1645 65.2108 51.7251 67.6591 47.9397 69.3295C44.1544 70.9999 40.0972 71.8596 36 71.8596V76.9732C45.5478 76.9732 54.7045 72.9325 61.4558 65.7402C68.2072 58.5478 72 48.7929 72 38.6213H67.2ZM36 0.26943C26.4522 0.26943 17.2955 4.31006 10.5442 11.5024C3.79285 18.6948 0 28.4498 0 38.6213H4.8C4.8 29.806 8.08713 21.3517 13.9383 15.1183C19.7894 8.88489 27.7252 5.38301 36 5.38301V0.26943ZM64.8 15.6102C65.4365 15.6102 66.047 15.8796 66.4971 16.359C66.9472 16.8385 67.2 17.4889 67.2 18.167H72C72 16.1327 71.2414 14.1817 69.8912 12.7432C68.5409 11.3047 66.7096 10.4966 64.8 10.4966V15.6102ZM64.8 20.7238C64.1635 20.7238 63.553 20.4544 63.1029 19.9749C62.6529 19.4954 62.4 18.8451 62.4 18.167H57.6C57.6 20.2013 58.3586 22.1523 59.7088 23.5907C61.0591 25.0292 62.8904 25.8373 64.8 25.8373V20.7238ZM62.4 18.167C62.4 17.538 62.6112 16.9653 62.9664 16.5153L59.304 13.2119C58.2432 14.5466 57.6 16.2801 57.6 18.167H62.4ZM62.9664 16.5153C63.1914 16.2309 63.4722 16.0025 63.789 15.8462C64.1058 15.6898 64.4509 15.6092 64.8 15.6102V10.4966C62.592 10.4966 60.6192 11.5551 59.304 13.2119L62.9664 16.5153ZM36 5.38301C45.2832 5.38301 53.6208 9.69888 59.3376 16.5613L62.928 13.1659C59.5535 9.10637 55.4077 5.85727 50.7653 3.63391C46.1229 1.41055 41.0899 0.263724 36 0.26943V5.38301ZM64.0992 24.1499C66.0864 28.5271 67.2 33.431 67.2 38.6213H72C72 32.6384 70.7136 26.9777 68.4192 21.9255L64.0992 24.1499ZM67.2 18.167C67.2007 18.7098 67.0392 19.2388 66.7389 19.6773C66.4386 20.1158 66.015 20.4411 65.5296 20.6061L66.9888 25.4743C68.4435 24.9798 69.713 24.0053 70.6137 22.6918C71.5145 21.3783 72 19.7937 72 18.167H67.2ZM65.5296 20.6061C65.2935 20.6852 65.0474 20.7249 64.8 20.7238V25.8373C65.5426 25.839 66.2809 25.7131 66.9888 25.4743L65.5296 20.6061Z" fill="#8FBCFF"/>
</svg>
