<svg width="72" height="80" viewBox="0 0 72 80" fill="none" xmlns="http://www.w3.org/2000/svg">
<path d="M21.6 29.8863L23.52 31.4655C23.7874 31.0744 23.9503 30.6094 23.9903 30.1226C24.0303 29.6358 23.946 29.1464 23.7466 28.7092C23.5473 28.272 23.2409 27.9043 22.8618 27.6474C22.4826 27.3904 22.0457 27.2543 21.6 27.2543V29.8863ZM14.4 40.4142L12.48 38.835C12.2126 39.2261 12.0497 39.691 12.0097 40.1779C11.9697 40.6647 12.054 41.1541 12.2534 41.5913C12.4527 42.0285 12.7591 42.3962 13.1382 42.6531C13.5174 42.9101 13.9543 43.0462 14.4 43.0462V40.4142ZM9.6 32.5182H21.6V27.2543H9.6V32.5182ZM19.68 28.3071L12.48 38.835L16.32 41.9934L23.52 31.4655L19.68 28.3071ZM14.4 43.0462H16.8V37.7822H14.4V43.0462ZM16.8 48.3102H9.6V53.5742H16.8V48.3102ZM19.2 45.6782C19.2 46.3763 18.9471 47.0457 18.4971 47.5393C18.047 48.0329 17.4365 48.3102 16.8 48.3102V53.5742C18.7096 53.5742 20.5409 52.7423 21.8912 51.2615C23.2414 49.7807 24 47.7723 24 45.6782H19.2ZM16.8 43.0462C17.4365 43.0462 18.047 43.3235 18.4971 43.8171C18.9471 44.3107 19.2 44.9802 19.2 45.6782H24C24 43.5841 23.2414 41.5757 21.8912 40.0949C20.5409 38.6141 18.7096 37.7822 16.8 37.7822V43.0462ZM38.4 27.2543H36V32.5182H38.4V27.2543ZM28.8 35.1502V40.4142H33.6V35.1502H28.8ZM28.8 40.4142V45.6782H33.6V40.4142H28.8ZM36 37.7822H31.2V43.0462H36V37.7822ZM43.2 45.6782C43.2 43.5841 42.4414 41.5757 41.0912 40.0949C39.7409 38.6141 37.9096 37.7822 36 37.7822V43.0462C36.6365 43.0462 37.247 43.3235 37.6971 43.8171C38.1471 44.3107 38.4 44.9802 38.4 45.6782H43.2ZM36 53.5742C37.9096 53.5742 39.7409 52.7423 41.0912 51.2615C42.4414 49.7807 43.2 47.7723 43.2 45.6782H38.4C38.4 46.3763 38.1471 47.0457 37.6971 47.5393C37.247 48.0329 36.6365 48.3102 36 48.3102V53.5742ZM36 48.3102C35.3635 48.3102 34.753 48.0329 34.3029 47.5393C33.8529 47.0457 33.6 46.3763 33.6 45.6782H28.8C28.8 47.7723 29.5586 49.7807 30.9088 51.2615C32.2591 52.7423 34.0904 53.5742 36 53.5742V48.3102ZM36 27.2543C34.0904 27.2543 32.2591 28.0862 30.9088 29.5669C29.5586 31.0477 28.8 33.0561 28.8 35.1502H33.6C33.6 34.4522 33.8529 33.7827 34.3029 33.2891C34.753 32.7955 35.3635 32.5182 36 32.5182V27.2543ZM57.6 35.1502V45.6782H62.4V35.1502H57.6ZM52.8 45.6782V35.1502H48V45.6782H52.8ZM55.2 48.3102C54.5635 48.3102 53.953 48.0329 53.5029 47.5393C53.0529 47.0457 52.8 46.3763 52.8 45.6782H48C48 47.7723 48.7586 49.7807 50.1088 51.2615C51.4591 52.7423 53.2904 53.5742 55.2 53.5742V48.3102ZM57.6 45.6782C57.6 46.3763 57.3471 47.0457 56.8971 47.5393C56.447 48.0329 55.8365 48.3102 55.2 48.3102V53.5742C57.1096 53.5742 58.9409 52.7423 60.2912 51.2615C61.6414 49.7807 62.4 47.7723 62.4 45.6782H57.6ZM55.2 32.5182C55.8365 32.5182 56.447 32.7955 56.8971 33.2891C57.3471 33.7827 57.6 34.4522 57.6 35.1502H62.4C62.4 33.0561 61.6414 31.0477 60.2912 29.5669C58.9409 28.0862 57.1096 27.2543 55.2 27.2543V32.5182ZM55.2 27.2543C53.2904 27.2543 51.4591 28.0862 50.1088 29.5669C48.7586 31.0477 48 33.0561 48 35.1502H52.8C52.8 34.4522 53.0529 33.7827 53.5029 33.2891C53.953 32.7955 54.5635 32.5182 55.2 32.5182V27.2543ZM36 74.6301C27.7252 74.6301 19.7894 71.0252 13.9383 64.6085C8.08713 58.1918 4.8 49.4888 4.8 40.4142H0C0 50.8849 3.79285 60.9268 10.5442 68.3307C17.2955 75.7346 26.4522 79.8941 36 79.8941V74.6301ZM67.2 40.4142C67.2 44.9075 66.393 49.3568 64.825 53.5081C63.2571 57.6593 60.9589 61.4313 58.0617 64.6085C55.1645 67.7858 51.7251 70.3061 47.9397 72.0256C44.1544 73.7451 40.0972 74.6301 36 74.6301V79.8941C45.5478 79.8941 54.7045 75.7346 61.4558 68.3307C68.2072 60.9268 72 50.8849 72 40.4142H67.2ZM36 0.934348C26.4522 0.934348 17.2955 5.09382 10.5442 12.4977C3.79285 19.9016 0 29.9435 0 40.4142H4.8C4.8 31.3396 8.08713 22.6367 13.9383 16.2199C19.7894 9.80321 27.7252 6.19833 36 6.19833V0.934348ZM64.8 16.7263C65.4365 16.7263 66.047 17.0036 66.4971 17.4972C66.9472 17.9908 67.2 18.6602 67.2 19.3583H72C72 17.2641 71.2414 15.2558 69.8912 13.775C68.5409 12.2942 66.7096 11.4623 64.8 11.4623V16.7263ZM64.8 21.9903C64.1635 21.9903 63.553 21.713 63.1029 21.2194C62.6529 20.7258 62.4 20.0563 62.4 19.3583H57.6C57.6 21.4524 58.3586 23.4608 59.7088 24.9416C61.0591 26.4224 62.8904 27.2543 64.8 27.2543V21.9903ZM62.4 19.3583C62.4 18.7108 62.6112 18.1213 62.9664 17.658L59.304 14.2575C58.2432 15.6314 57.6 17.4159 57.6 19.3583H62.4ZM62.9664 17.658C63.1914 17.3653 63.4722 17.1302 63.789 16.9692C64.1058 16.8082 64.4509 16.7253 64.8 16.7263V11.4623C62.592 11.4623 60.6192 12.552 59.304 14.2575L62.9664 17.658ZM36 6.19833C45.2832 6.19833 53.6208 10.6411 59.3376 17.7054L62.928 14.2101C59.5535 10.0312 55.4077 6.68653 50.7653 4.39778C46.1229 2.10903 41.0899 0.928474 36 0.934348V6.19833ZM64.0992 25.5172C66.0864 30.0231 67.2 35.0713 67.2 40.4142H72C72 34.2554 70.7136 28.4281 68.4192 23.2273L64.0992 25.5172ZM67.2 19.3583C67.2007 19.9171 67.0392 20.4616 66.7389 20.913C66.4386 21.3644 66.015 21.6993 65.5296 21.8692L66.9888 26.8805C68.4435 26.3715 69.713 25.3684 70.6137 24.0162C71.5145 22.6641 72 21.0329 72 19.3583H67.2ZM65.5296 21.8692C65.2935 21.9506 65.0474 21.9914 64.8 21.9903V27.2543C65.5426 27.256 66.2809 27.1264 66.9888 26.8805L65.5296 21.8692Z" fill="#8FBCFF"/>
</svg>
