<svg width="67" height="70" viewBox="0 0 67 70" fill="none" xmlns="http://www.w3.org/2000/svg">
<path d="M20.1 25.3824L21.8867 26.7669C22.1355 26.424 22.2871 26.0164 22.3243 25.5896C22.3616 25.1628 22.283 24.7337 22.0976 24.3504C21.9121 23.9671 21.6269 23.6448 21.2741 23.4195C20.9213 23.1942 20.5148 23.0749 20.1 23.0749V25.3824ZM13.4 34.6123L11.6133 33.2278C11.3645 33.5706 11.2129 33.9783 11.1757 34.4051C11.1384 34.8319 11.217 35.261 11.4024 35.6443C11.5879 36.0275 11.8731 36.3499 12.2259 36.5752C12.5787 36.8005 12.9852 36.9198 13.4 36.9198V34.6123ZM8.93333 27.6899H20.1V23.0749H8.93333V27.6899ZM18.3133 23.9979L11.6133 33.2278L15.1867 35.9968L21.8867 26.7669L18.3133 23.9979ZM13.4 36.9198H15.6333V32.3048H13.4V36.9198ZM15.6333 41.5348H8.93333V46.1497H15.6333V41.5348ZM17.8667 39.2273C17.8667 39.8393 17.6314 40.4262 17.2125 40.8589C16.7937 41.2917 16.2257 41.5348 15.6333 41.5348V46.1497C17.4103 46.1497 19.1145 45.4204 20.371 44.1222C21.6274 42.824 22.3333 41.0632 22.3333 39.2273H17.8667ZM15.6333 36.9198C16.2257 36.9198 16.7937 37.1629 17.2125 37.5956C17.6314 38.0284 17.8667 38.6153 17.8667 39.2273H22.3333C22.3333 37.3913 21.6274 35.6306 20.371 34.3324C19.1145 33.0342 17.4103 32.3048 15.6333 32.3048V36.9198ZM35.7333 23.0749H33.5V27.6899H35.7333V23.0749ZM26.8 29.9973V34.6123H31.2667V29.9973H26.8ZM26.8 34.6123V39.2273H31.2667V34.6123H26.8ZM33.5 32.3048H29.0333V36.9198H33.5V32.3048ZM40.2 39.2273C40.2 37.3913 39.4941 35.6306 38.2376 34.3324C36.9811 33.0342 35.277 32.3048 33.5 32.3048V36.9198C34.0923 36.9198 34.6604 37.1629 35.0792 37.5956C35.498 38.0284 35.7333 38.6153 35.7333 39.2273H40.2ZM33.5 46.1497C35.277 46.1497 36.9811 45.4204 38.2376 44.1222C39.4941 42.824 40.2 41.0632 40.2 39.2273H35.7333C35.7333 39.8393 35.498 40.4262 35.0792 40.8589C34.6604 41.2917 34.0923 41.5348 33.5 41.5348V46.1497ZM33.5 41.5348C32.9077 41.5348 32.3396 41.2917 31.9208 40.8589C31.502 40.4262 31.2667 39.8393 31.2667 39.2273H26.8C26.8 41.0632 27.5059 42.824 28.7624 44.1222C30.0189 45.4204 31.7231 46.1497 33.5 46.1497V41.5348ZM33.5 23.0749C31.7231 23.0749 30.0189 23.8042 28.7624 25.1024C27.5059 26.4006 26.8 28.1614 26.8 29.9973H31.2667C31.2667 29.3854 31.502 28.7984 31.9208 28.3657C32.3396 27.933 32.9077 27.6899 33.5 27.6899V23.0749ZM53.6 29.9973V39.2273H58.0667V29.9973H53.6ZM49.1333 39.2273V29.9973H44.6667V39.2273H49.1333ZM51.3667 41.5348C50.7744 41.5348 50.2063 41.2917 49.7875 40.8589C49.3686 40.4262 49.1333 39.8393 49.1333 39.2273H44.6667C44.6667 41.0632 45.3726 42.824 46.6291 44.1222C47.8855 45.4204 49.5897 46.1497 51.3667 46.1497V41.5348ZM53.6 39.2273C53.6 39.8393 53.3647 40.4262 52.9459 40.8589C52.527 41.2917 51.959 41.5348 51.3667 41.5348V46.1497C53.1436 46.1497 54.8478 45.4204 56.1043 44.1222C57.3608 42.824 58.0667 41.0632 58.0667 39.2273H53.6ZM51.3667 27.6899C51.959 27.6899 52.527 27.933 52.9459 28.3657C53.3647 28.7984 53.6 29.3854 53.6 29.9973H58.0667C58.0667 28.1614 57.3608 26.4006 56.1043 25.1024C54.8478 23.8042 53.1436 23.0749 51.3667 23.0749V27.6899ZM51.3667 23.0749C49.5897 23.0749 47.8855 23.8042 46.6291 25.1024C45.3726 26.4006 44.6667 28.1614 44.6667 29.9973H49.1333C49.1333 29.3854 49.3686 28.7984 49.7875 28.3657C50.2063 27.933 50.7744 27.6899 51.3667 27.6899V23.0749ZM33.5 64.6096C25.7999 64.6096 18.4151 61.4492 12.9703 55.8236C7.52553 50.198 4.46667 42.5681 4.46667 34.6123H0C0 43.7921 3.52945 52.5958 9.81192 59.0869C16.0944 65.578 24.6152 69.2246 33.5 69.2246V64.6096ZM62.5333 34.6123C62.5333 38.5516 61.7824 42.4523 60.3233 46.0918C58.8642 49.7312 56.7257 53.0381 54.0297 55.8236C51.3337 58.6091 48.1331 60.8187 44.6106 62.3262C41.0881 63.8337 37.3127 64.6096 33.5 64.6096V69.2246C42.3848 69.2246 50.9056 65.578 57.1881 59.0869C63.4705 52.5958 67 43.7921 67 34.6123H62.5333ZM33.5 1.91237e-05C24.6152 1.91237e-05 16.0944 3.64666 9.81192 10.1377C3.52945 16.6288 0 25.4326 0 34.6123H4.46667C4.46667 26.6565 7.52553 19.0266 12.9703 13.401C18.4151 7.77541 25.7999 4.61499 33.5 4.61499V1.91237e-05ZM60.3 13.8449C60.8923 13.8449 61.4604 14.088 61.8792 14.5208C62.298 14.9535 62.5333 15.5404 62.5333 16.1524H67C67 14.3165 66.2941 12.5557 65.0376 11.2575C63.7811 9.95929 62.077 9.22996 60.3 9.22996V13.8449ZM60.3 18.4599C59.7077 18.4599 59.1396 18.2168 58.7208 17.7841C58.302 17.3513 58.0667 16.7644 58.0667 16.1524H53.6C53.6 17.9884 54.3059 19.7491 55.5624 21.0473C56.8189 22.3456 58.5231 23.0749 60.3 23.0749V18.4599ZM58.0667 16.1524C58.0667 15.5848 58.2632 15.0679 58.5937 14.6618L55.1857 11.6805C54.1985 12.885 53.6 14.4495 53.6 16.1524H58.0667ZM58.5937 14.6618C58.8032 14.4052 59.0644 14.199 59.3592 14.0579C59.654 13.9168 59.9751 13.8441 60.3 13.8449V9.22996C58.2453 9.22996 56.4095 10.1853 55.1857 11.6805L58.5937 14.6618ZM33.5 4.61499C42.1385 4.61499 49.8971 8.51003 55.2169 14.7033L58.558 11.639C55.4179 7.9753 51.5599 5.043 47.2399 3.03644C42.9199 1.02987 38.2365 -0.00513071 33.5 1.91237e-05V4.61499ZM59.6479 21.5519C61.4971 25.5024 62.5333 29.9281 62.5333 34.6123H67C67 29.2128 65.8029 24.104 63.6679 19.5444L59.6479 21.5519ZM62.5333 16.1524C62.534 16.6423 62.3837 17.1197 62.1042 17.5155C61.8248 17.9112 61.4306 18.2048 60.9789 18.3538L62.3368 22.7472C63.6905 22.3009 64.8718 21.4215 65.71 20.2361C66.5482 19.0506 67 17.6205 67 16.1524H62.5333ZM60.9789 18.3538C60.7593 18.4251 60.5303 18.4609 60.3 18.4599V23.0749C60.991 23.0764 61.6781 22.9628 62.3368 22.7472L60.9789 18.3538Z" fill="#8FBCFF"/>
</svg>
