<svg width="72" height="78" viewBox="0 0 72 78" fill="none" xmlns="http://www.w3.org/2000/svg">
<path d="M21.6 29.1284L23.52 30.6695C23.7874 30.2879 23.9503 29.8341 23.9903 29.3591C24.0303 28.884 23.946 28.4064 23.7466 27.9797C23.5473 27.5531 23.2409 27.1943 22.8618 26.9435C22.4826 26.6927 22.0457 26.5599 21.6 26.5599V29.1284ZM14.4 39.4023L12.48 37.8612C12.2126 38.2428 12.0497 38.6966 12.0097 39.1717C11.9697 39.6468 12.054 40.1244 12.2534 40.551C12.4527 40.9776 12.7591 41.3365 13.1382 41.5872C13.5174 41.838 13.9543 41.9708 14.4 41.9708V39.4023ZM9.6 31.6969H21.6V26.5599H9.6V31.6969ZM19.68 27.5873L12.48 37.8612L16.32 40.9434L23.52 30.6695L19.68 27.5873ZM14.4 41.9708H16.8V36.8339H14.4V41.9708ZM16.8 47.1078H9.6V52.2448H16.8V47.1078ZM19.2 44.5393C19.2 45.2205 18.9471 45.8738 18.4971 46.3555C18.047 46.8372 17.4365 47.1078 16.8 47.1078V52.2448C18.7096 52.2448 20.5409 51.433 21.8912 49.9879C23.2414 48.5428 24 46.5829 24 44.5393H19.2ZM16.8 41.9708C17.4365 41.9708 18.047 42.2414 18.4971 42.7231C18.9471 43.2048 19.2 43.8581 19.2 44.5393H24C24 42.4957 23.2414 40.5358 21.8912 39.0907C20.5409 37.6457 18.7096 36.8339 16.8 36.8339V41.9708ZM38.4 26.5599H36V31.6969H38.4V26.5599ZM28.8 34.2654V39.4023H33.6V34.2654H28.8ZM28.8 39.4023V44.5393H33.6V39.4023H28.8ZM36 36.8339H31.2V41.9708H36V36.8339ZM43.2 44.5393C43.2 42.4957 42.4414 40.5358 41.0912 39.0907C39.7409 37.6457 37.9096 36.8339 36 36.8339V41.9708C36.6365 41.9708 37.247 42.2414 37.6971 42.7231C38.1471 43.2048 38.4 43.8581 38.4 44.5393H43.2ZM36 52.2448C37.9096 52.2448 39.7409 51.433 41.0912 49.9879C42.4414 48.5428 43.2 46.5829 43.2 44.5393H38.4C38.4 45.2205 38.1471 45.8738 37.6971 46.3555C37.247 46.8372 36.6365 47.1078 36 47.1078V52.2448ZM36 47.1078C35.3635 47.1078 34.753 46.8372 34.3029 46.3555C33.8529 45.8738 33.6 45.2205 33.6 44.5393H28.8C28.8 46.5829 29.5586 48.5428 30.9088 49.9879C32.2591 51.433 34.0904 52.2448 36 52.2448V47.1078ZM36 26.5599C34.0904 26.5599 32.2591 27.3717 30.9088 28.8168C29.5586 30.2618 28.8 32.2218 28.8 34.2654H33.6C33.6 33.5842 33.8529 32.9309 34.3029 32.4492C34.753 31.9675 35.3635 31.6969 36 31.6969V26.5599ZM57.6 34.2654V44.5393H62.4V34.2654H57.6ZM52.8 44.5393V34.2654H48V44.5393H52.8ZM55.2 47.1078C54.5635 47.1078 53.953 46.8372 53.5029 46.3555C53.0529 45.8738 52.8 45.2205 52.8 44.5393H48C48 46.5829 48.7586 48.5428 50.1088 49.9879C51.4591 51.433 53.2904 52.2448 55.2 52.2448V47.1078ZM57.6 44.5393C57.6 45.2205 57.3471 45.8738 56.8971 46.3555C56.447 46.8372 55.8365 47.1078 55.2 47.1078V52.2448C57.1096 52.2448 58.9409 51.433 60.2912 49.9879C61.6414 48.5428 62.4 46.5829 62.4 44.5393H57.6ZM55.2 31.6969C55.8365 31.6969 56.447 31.9675 56.8971 32.4492C57.3471 32.9309 57.6 33.5842 57.6 34.2654H62.4C62.4 32.2218 61.6414 30.2618 60.2912 28.8168C58.9409 27.3717 57.1096 26.5599 55.2 26.5599V31.6969ZM55.2 26.5599C53.2904 26.5599 51.4591 27.3717 50.1088 28.8168C48.7586 30.2618 48 32.2218 48 34.2654H52.8C52.8 33.5842 53.0529 32.9309 53.5029 32.4492C53.953 31.9675 54.5635 31.6969 55.2 31.6969V26.5599ZM36 72.7927C27.7252 72.7927 19.7894 69.2748 13.9383 63.0129C8.08713 56.751 4.8 48.258 4.8 39.4023H0C0 49.6204 3.79285 59.42 10.5442 66.6453C17.2955 73.8705 26.4522 77.9297 36 77.9297V72.7927ZM67.2 39.4023C67.2 43.7872 66.393 48.1292 64.825 52.1803C63.2571 56.2314 60.9589 59.9123 58.0617 63.0129C55.1645 66.1135 51.7251 68.573 47.9397 70.251C44.1544 71.929 40.0972 72.7927 36 72.7927V77.9297C45.5478 77.9297 54.7045 73.8705 61.4558 66.6453C68.2072 59.42 72 49.6204 72 39.4023H67.2ZM36 0.875021C26.4522 0.875021 17.2955 4.93414 10.5442 12.1594C3.79285 19.3847 0 29.1843 0 39.4023H4.8C4.8 30.5467 8.08713 22.0537 13.9383 15.7918C19.7894 9.5299 27.7252 6.012 36 6.012V0.875021ZM64.8 16.2859C65.4365 16.2859 66.047 16.5566 66.4971 17.0382C66.9472 17.5199 67.2 18.1732 67.2 18.8544H72C72 16.8108 71.2414 14.8509 69.8912 13.4059C68.5409 11.9608 66.7096 11.149 64.8 11.149V16.2859ZM64.8 21.4229C64.1635 21.4229 63.553 21.1523 63.1029 20.6706C62.6529 20.1889 62.4 19.5356 62.4 18.8544H57.6C57.6 20.8981 58.3586 22.858 59.7088 24.303C61.0591 25.7481 62.8904 26.5599 64.8 26.5599V21.4229ZM62.4 18.8544C62.4 18.2226 62.6112 17.6472 62.9664 17.1952L59.304 13.8767C58.2432 15.2175 57.6 16.9589 57.6 18.8544H62.4ZM62.9664 17.1952C63.1914 16.9095 63.4722 16.6801 63.789 16.523C64.1058 16.3659 64.4509 16.285 64.8 16.2859V11.149C62.592 11.149 60.6192 12.2123 59.304 13.8767L62.9664 17.1952ZM36 6.012C45.2832 6.012 53.6208 10.3476 59.3376 17.2414L62.928 13.8305C59.5535 9.75239 55.4077 6.48842 50.7653 4.25489C46.1229 2.02136 41.0899 0.869289 36 0.875021V6.012ZM64.0992 24.8647C66.0864 29.262 67.2 34.1883 67.2 39.4023H72C72 33.3921 70.7136 27.7055 68.4192 22.6301L64.0992 24.8647ZM67.2 18.8544C67.2007 19.3997 67.0392 19.9311 66.7389 20.3717C66.4386 20.8122 66.015 21.139 65.5296 21.3048L66.9888 26.1952C68.4435 25.6984 69.713 24.7195 70.6137 23.4C71.5145 22.0805 72 20.4886 72 18.8544H67.2ZM65.5296 21.3048C65.2935 21.3842 65.0474 21.424 64.8 21.4229V26.5599C65.5426 26.5616 66.2809 26.4351 66.9888 26.1952L65.5296 21.3048Z" fill="#8FBCFF"/>
</svg>
