<svg width="72" height="80" viewBox="0 0 72 80" fill="none" xmlns="http://www.w3.org/2000/svg">
<path d="M21.6 28.9778L23.52 30.5584C23.7874 30.1671 23.9503 29.7017 23.9903 29.2144C24.0303 28.7272 23.946 28.2373 23.7466 27.7997C23.5473 27.3621 23.2409 26.9941 22.8618 26.7369C22.4826 26.4797 22.0457 26.3435 21.6 26.3435V28.9778ZM14.4 39.5152L12.48 37.9346C12.2126 38.326 12.0497 38.7914 12.0097 39.2786C11.9697 39.7659 12.054 40.2558 12.2534 40.6933C12.4527 41.1309 12.7591 41.4989 13.1382 41.7561C13.5174 42.0133 13.9543 42.1496 14.4 42.1496V39.5152ZM9.6 31.6122H21.6V26.3435H9.6V31.6122ZM19.68 27.3972L12.48 37.9346L16.32 41.0958L23.52 30.5584L19.68 27.3972ZM14.4 42.1496H16.8V36.8809H14.4V42.1496ZM16.8 47.4183H9.6V52.687H16.8V47.4183ZM19.2 44.7839C19.2 45.4826 18.9471 46.1526 18.4971 46.6467C18.047 47.1407 17.4365 47.4183 16.8 47.4183V52.687C18.7096 52.687 20.5409 51.8543 21.8912 50.3722C23.2414 48.8901 24 46.8799 24 44.7839H19.2ZM16.8 42.1496C17.4365 42.1496 18.047 42.4271 18.4971 42.9212C18.9471 43.4152 19.2 44.0852 19.2 44.7839H24C24 42.6879 23.2414 40.6777 21.8912 39.1956C20.5409 37.7135 18.7096 36.8809 16.8 36.8809V42.1496ZM38.4 26.3435H36V31.6122H38.4V26.3435ZM28.8 34.2465V39.5152H33.6V34.2465H28.8ZM28.8 39.5152V44.7839H33.6V39.5152H28.8ZM36 36.8809H31.2V42.1496H36V36.8809ZM43.2 44.7839C43.2 42.6879 42.4414 40.6777 41.0912 39.1956C39.7409 37.7135 37.9096 36.8809 36 36.8809V42.1496C36.6365 42.1496 37.247 42.4271 37.6971 42.9212C38.1471 43.4152 38.4 44.0852 38.4 44.7839H43.2ZM36 52.687C37.9096 52.687 39.7409 51.8543 41.0912 50.3722C42.4414 48.8901 43.2 46.8799 43.2 44.7839H38.4C38.4 45.4826 38.1471 46.1526 37.6971 46.6467C37.247 47.1407 36.6365 47.4183 36 47.4183V52.687ZM36 47.4183C35.3635 47.4183 34.753 47.1407 34.3029 46.6467C33.8529 46.1526 33.6 45.4826 33.6 44.7839H28.8C28.8 46.8799 29.5586 48.8901 30.9088 50.3722C32.2591 51.8543 34.0904 52.687 36 52.687V47.4183ZM36 26.3435C34.0904 26.3435 32.2591 27.1761 30.9088 28.6582C29.5586 30.1403 28.8 32.1505 28.8 34.2465H33.6C33.6 33.5479 33.8529 32.8778 34.3029 32.3838C34.753 31.8897 35.3635 31.6122 36 31.6122V26.3435ZM57.6 34.2465V44.7839H62.4V34.2465H57.6ZM52.8 44.7839V34.2465H48V44.7839H52.8ZM55.2 47.4183C54.5635 47.4183 53.953 47.1407 53.5029 46.6467C53.0529 46.1526 52.8 45.4826 52.8 44.7839H48C48 46.8799 48.7586 48.8901 50.1088 50.3722C51.4591 51.8543 53.2904 52.687 55.2 52.687V47.4183ZM57.6 44.7839C57.6 45.4826 57.3471 46.1526 56.8971 46.6467C56.447 47.1407 55.8365 47.4183 55.2 47.4183V52.687C57.1096 52.687 58.9409 51.8543 60.2912 50.3722C61.6414 48.8901 62.4 46.8799 62.4 44.7839H57.6ZM55.2 31.6122C55.8365 31.6122 56.447 31.8897 56.8971 32.3838C57.3471 32.8778 57.6 33.5479 57.6 34.2465H62.4C62.4 32.1505 61.6414 30.1403 60.2912 28.6582C58.9409 27.1761 57.1096 26.3435 55.2 26.3435V31.6122ZM55.2 26.3435C53.2904 26.3435 51.4591 27.1761 50.1088 28.6582C48.7586 30.1403 48 32.1505 48 34.2465H52.8C52.8 33.5479 53.0529 32.8778 53.5029 32.3838C53.953 31.8897 54.5635 31.6122 55.2 31.6122V26.3435ZM36 73.7617C27.7252 73.7617 19.7894 70.1536 13.9383 63.7312C8.08713 57.3087 4.8 48.598 4.8 39.5152H0C0 49.9953 3.79285 60.0462 10.5442 67.4567C17.2955 74.8672 26.4522 79.0304 36 79.0304V73.7617ZM67.2 39.5152C67.2 44.0125 66.393 48.4658 64.825 52.6208C63.2571 56.7758 60.9589 60.5511 58.0617 63.7312C55.1645 66.9112 51.7251 69.4338 47.9397 71.1549C44.1544 72.8759 40.0972 73.7617 36 73.7617V79.0304C45.5478 79.0304 54.7045 74.8672 61.4558 67.4567C68.2072 60.0462 72 49.9953 72 39.5152H67.2ZM36 2.18327e-05C26.4522 2.18327e-05 17.2955 4.16322 10.5442 11.5738C3.79285 18.9843 0 29.0351 0 39.5152H4.8C4.8 30.4325 8.08713 21.7218 13.9383 15.2993C19.7894 8.87682 27.7252 5.26872 36 5.26872V2.18327e-05ZM64.8 15.8061C65.4365 15.8061 66.047 16.0837 66.4971 16.5777C66.9472 17.0717 67.2 17.7418 67.2 18.4405H72C72 16.3444 71.2414 14.3343 69.8912 12.8522C68.5409 11.37 66.7096 10.5374 64.8 10.5374V15.8061ZM64.8 21.0748C64.1635 21.0748 63.553 20.7973 63.1029 20.3032C62.6529 19.8092 62.4 19.1391 62.4 18.4405H57.6C57.6 20.5365 58.3586 22.5466 59.7088 24.0287C61.0591 25.5109 62.8904 26.3435 64.8 26.3435V21.0748ZM62.4 18.4405C62.4 17.7924 62.6112 17.2023 62.9664 16.7387L59.304 13.3351C58.2432 14.7102 57.6 16.4963 57.6 18.4405H62.4ZM62.9664 16.7387C63.1914 16.4457 63.4722 16.2103 63.789 16.0492C64.1058 15.8881 64.4509 15.8051 64.8 15.8061V10.5374C62.592 10.5374 60.6192 11.628 59.304 13.3351L62.9664 16.7387ZM36 5.26872C45.2832 5.26872 53.6208 9.71549 59.3376 16.7861L62.928 13.2877C59.5535 9.10502 55.4077 5.75735 50.7653 3.46656C46.1229 1.17576 41.0899 -0.00585748 36 2.18327e-05V5.26872ZM64.0992 24.6048C66.0864 29.1148 67.2 34.1675 67.2 39.5152H72C72 33.3509 70.7136 27.5184 68.4192 22.3129L64.0992 24.6048ZM67.2 18.4405C67.2007 18.9997 67.0392 19.5448 66.7389 19.9966C66.4386 20.4484 66.015 20.7836 65.5296 20.9536L66.9888 25.9694C68.4435 25.4599 69.713 24.4559 70.6137 23.1026C71.5145 21.7492 72 20.1165 72 18.4405H67.2ZM65.5296 20.9536C65.2935 21.0351 65.0474 21.0759 64.8 21.0748V26.3435C65.5426 26.3452 66.2809 26.2155 66.9888 25.9694L65.5296 20.9536Z" fill="#8FBCFF"/>
</svg>
